<?xml version="1.0" encoding="UTF-8"?>
<svg viewBox="0 0 1100 720" xmlns="http://www.w3.org/2000/svg" role="img" aria-labelledby="t2 d2">
  <title id="t2">Rahat Now / Next / Later — shipped vs deferred with trigger conditions</title>
  <desc id="d2">Roadmap showing the eight items shipped in Now, the six deferred to Next with concrete trigger conditions, and the five Later items for mobile and multi-tenant.</desc>

  <style>
    .bg { fill: #ffffff; }
    .panel { fill: #f7f6f2; stroke: #e6e3da; stroke-width: 1; }
    .ink { fill: #1a1a1a; font-family: ui-sans-serif, system-ui, sans-serif; }
    .muted { fill: #6b6b6b; font-family: ui-sans-serif, system-ui, sans-serif; }
    .accent { fill: #d97757; }
    .green { fill: #2f8f59; font-family: ui-sans-serif, system-ui, sans-serif; }
    .title { font-weight: 600; font-size: 14px; }
    .h2 { font-weight: 600; font-size: 12px; letter-spacing: 0.04em; text-transform: uppercase; }
    .lbl { font-size: 11px; }
    .small { font-size: 10px; }
    .tiny { font-size: 9.5px; }
    .box { fill: #ffffff; stroke: #e6e3da; stroke-width: 1; }
    .box-shipped { fill: #ffffff; stroke: #2f8f59; stroke-width: 1.5; }
    .dashed { stroke-dasharray: 4 3; }
  </style>

  <rect class="bg" width="1100" height="720"/>

  <text class="ink title" x="40" y="34">Roadmap — Now / Next / Later</text>
  <text class="muted lbl" x="40" y="54">Triggers, not calendar. Promote from Next → Now when the consuming agent enters active build. Promote from Later → Next when the use-case is &lt; 90 days out.</text>

  <rect class="box-shipped" x="40" y="80" width="340" height="40" rx="6"/>
  <text class="ink title" x="60" y="104">NOW · shipped</text>
  <text class="green small" x="60" y="118">months 1–6 · scale to ~20 agents · 330 evals green</text>

  <rect class="box" x="392" y="80" width="340" height="40" rx="6"/>
  <text class="ink title" x="412" y="104">NEXT · deferred · trigger-gated</text>
  <text class="muted small" x="412" y="118">months 6–12 · pull in on consumer demand</text>

  <rect class="box dashed" x="744" y="80" width="316" height="40" rx="6" stroke-dasharray="4 3"/>
  <text class="ink title" x="764" y="104">LATER · design only</text>
  <text class="muted small" x="764" y="118">12+ months · mobile · multi-tenant · marketplace</text>

  <g>
    <rect class="box-shipped" x="40" y="132" width="340" height="46" rx="6"/>
    <text class="ink lbl" x="56" y="151">✓ core/io.py — tool helpers</text>
    <text class="muted small" x="56" y="167">single chokepoint · Telegram + Gemini + db()</text>
    <text class="green tiny" x="364" y="151" text-anchor="end">161 LOC</text>

    <rect class="box-shipped" x="40" y="186" width="340" height="46" rx="6"/>
    <text class="ink lbl" x="56" y="205">✓ core/agent.py — Agent contract</text>
    <text class="muted small" x="56" y="221">name · triggers · route · tick · 4-method shape</text>
    <text class="green tiny" x="364" y="205" text-anchor="end">111 LOC</text>

    <rect class="box-shipped" x="40" y="240" width="340" height="46" rx="6"/>
    <text class="ink lbl" x="56" y="259">✓ core/miya.py — Orchestrator</text>
    <text class="muted small" x="56" y="275">single inbox · hybrid router · voice layer</text>
    <text class="green tiny" x="364" y="259" text-anchor="end">280+ LOC</text>

    <rect class="box-shipped" x="40" y="294" width="340" height="46" rx="6"/>
    <text class="ink lbl" x="56" y="313">✓ core/charter.py — Policy plane</text>
    <text class="muted small" x="56" y="329">@policy registry · approve · modify · veto · audit</text>
    <text class="green tiny" x="364" y="313" text-anchor="end">211 LOC</text>

    <rect class="box-shipped" x="40" y="348" width="340" height="46" rx="6"/>
    <text class="ink lbl" x="56" y="367">✓ core/decisions.py — Trace log</text>
    <text class="muted small" x="56" y="383">trace_id · span() ctx · replay-ready</text>
    <text class="green tiny" x="364" y="367" text-anchor="end">197 LOC</text>

    <rect class="box-shipped" x="40" y="402" width="340" height="46" rx="6"/>
    <text class="ink lbl" x="56" y="421">✓ core/episodes.py — Episodic memory</text>
    <text class="muted small" x="56" y="437">open · close · note · used by Curriculum, Coach</text>
    <text class="green tiny" x="364" y="421" text-anchor="end">226 LOC</text>

    <rect class="box-shipped" x="40" y="456" width="340" height="46" rx="6"/>
    <text class="ink lbl" x="56" y="475">✓ core/voice.py — Hyderabadi voice</text>
    <text class="muted small" x="56" y="491">deterministic phrasebook · idempotent · preserves data</text>
    <text class="green tiny" x="364" y="475" text-anchor="end">165 LOC</text>

    <rect class="box-shipped" x="40" y="510" width="340" height="46" rx="6"/>
    <text class="ink lbl" x="56" y="529">✓ Kobe refactor + 330 evals</text>
    <text class="muted small" x="56" y="545">protocols.py extracted · 142+142+46 cases · CI-gate-able</text>
    <text class="green tiny" x="364" y="529" text-anchor="end">100% green</text>

    <rect class="panel" x="40" y="568" width="340" height="56" rx="6"/>
    <text class="ink h2" x="56" y="588">Three rules from Now</text>
    <text class="muted small" x="56" y="604">Telegram → Miya. I/O → core/io. Agent contract.</text>
    <text class="accent small" x="56" y="618">→ adding agent #20 = ~3-5 hrs each</text>
  </g>

  <g>
    <rect class="box" x="392" y="132" width="340" height="58" rx="6"/>
    <text class="ink lbl" x="408" y="151">Profile store</text>
    <text class="muted small" x="408" y="167">profile_facts(subject, key, value) · 3–4 hr</text>
    <text class="accent tiny" x="408" y="184">trigger: first agent that needs durable beliefs</text>

    <rect class="box" x="392" y="198" width="340" height="58" rx="6"/>
    <text class="ink lbl" x="408" y="217">Semantic memory — sqlite-vss</text>
    <text class="muted small" x="408" y="233">vector retrieval over saved corpus · ½ day</text>
    <text class="accent tiny" x="408" y="250">trigger: first concierge-class agent in build</text>

    <rect class="box" x="392" y="264" width="340" height="58" rx="6"/>
    <text class="ink lbl" x="408" y="283">Event log + projection rebuild</text>
    <text class="muted small" x="408" y="299">replay last 7 days · time-travel debug · ½ day</text>
    <text class="accent tiny" x="408" y="316">trigger: grading routing decisions matters</text>

    <rect class="box" x="392" y="330" width="340" height="58" rx="6"/>
    <text class="ink lbl" x="408" y="349">Embedding-based agent retrieval</text>
    <text class="muted small" x="408" y="365">replaces Flash classifier in Miya · ½ day</text>
    <text class="accent tiny" x="408" y="382">trigger: misroutes at &gt;15 overlapping agents</text>

    <rect class="box" x="392" y="396" width="340" height="58" rx="6"/>
    <text class="ink lbl" x="408" y="415">Cost &amp; latency dashboard</text>
    <text class="muted small" x="408" y="431">daily Telegram digest off decisions · 1 hr</text>
    <text class="accent tiny" x="408" y="448">trigger: monthly LLM cost surprises you</text>

    <rect class="box" x="392" y="462" width="340" height="58" rx="6"/>
    <text class="ink lbl" x="408" y="481">CLI — rahat status / tail / replay / eval</text>
    <text class="muted small" x="408" y="497">on-host introspection · 2–3 hr</text>
    <text class="accent tiny" x="408" y="514">trigger: sshing in to grep logs</text>

    <rect class="panel" x="392" y="528" width="340" height="96" rx="6"/>
    <text class="ink h2" x="408" y="548">Promotion rule (3 questions)</text>
    <text class="muted small" x="408" y="566">1 · Now-window agent will consume it?</text>
    <text class="muted small" x="408" y="582">2 · Multiple agents will reinvent it?</text>
    <text class="muted small" x="408" y="598">3 · Surface clear &amp; cost &lt; 1 day?</text>
    <text class="accent small" x="408" y="616">All three yes → pull to Now.</text>
  </g>

  <g>
    <rect class="box dashed" x="744" y="132" width="316" height="58" rx="6" stroke-dasharray="4 3"/>
    <text class="ink lbl" x="760" y="151">FastAPI gateway over Tailscale</text>
    <text class="muted small" x="760" y="167">read-only projections · 1 day</text>
    <text class="muted tiny" x="760" y="184">trigger: mobile horizon &lt; 90 days</text>

    <rect class="box dashed" x="744" y="198" width="316" height="58" rx="6" stroke-dasharray="4 3"/>
    <text class="ink lbl" x="760" y="217">Thin mobile client</text>
    <text class="muted small" x="760" y="233">SwiftUI/RN · APNs · 1–2 weeks</text>
    <text class="muted tiny" x="760" y="250">trigger: gateway stable ~30 days</text>

    <rect class="box dashed" x="744" y="264" width="316" height="58" rx="6" stroke-dasharray="4 3"/>
    <text class="ink lbl" x="760" y="283">Skill manifests + true registry</text>
    <text class="muted small" x="760" y="299">TOML + scope checks · 2–3 days</text>
    <text class="muted tiny" x="760" y="316">trigger: 3rd-party / marketplace agents</text>

    <rect class="box dashed" x="744" y="330" width="316" height="58" rx="6" stroke-dasharray="4 3"/>
    <text class="ink lbl" x="760" y="349">Multi-tenant — subject_id everywhere</text>
    <text class="muted small" x="760" y="365">scope-checked in Charter · 1–2 days</text>
    <text class="muted tiny" x="760" y="382">trigger: partner / toddler get agents</text>

    <rect class="box dashed" x="744" y="396" width="316" height="58" rx="6" stroke-dasharray="4 3"/>
    <text class="ink lbl" x="760" y="415">Encrypted off-machine ledger mirror</text>
    <text class="muted small" x="760" y="431">tiny VPS via Litestream · 1 day</text>
    <text class="muted tiny" x="760" y="448">trigger: first hardware near-miss</text>

    <rect class="panel" x="744" y="462" width="316" height="162" rx="6"/>
    <text class="ink h2" x="760" y="482">Sovereignty preserved</text>
    <text class="muted small" x="760" y="500">Mac Mini stays the brain.</text>
    <text class="muted small" x="760" y="516">Mobile = additive channel,</text>
    <text class="muted small" x="760" y="532">not a rewrite.</text>
    <text class="accent small" x="760" y="554">Discipline from Now</text>
    <text class="accent small" x="760" y="570">(Telegram → Miya, I/O → core/io)</text>
    <text class="accent small" x="760" y="586">makes mobile a configuration</text>
    <text class="accent small" x="760" y="602">change, not an agent rewrite.</text>
  </g>

  <text class="muted small" x="40" y="660">CHOKEPOINTS · already in place: Miya (1 inbox) · Charter (1 policy gate) · Tool Broker (1 I/O path) · Decisions (1 trace log)</text>
  <text class="muted small" x="40" y="678">DEFERRED ON PURPOSE: TOML manifests (premature at N&lt;6) · profile (no Now consumer) · vss (no Now consumer) · cloud sync (sovereignty)</text>
  <text class="accent small" x="40" y="700">Stripped down: 8 items shipped, 6 deferred-with-triggers, 5 design-only. No speculative builds.</text>
</svg>
